<svg xmlns="http://www.w3.org/2000/svg" width="20" height="18" viewBox="0 0 20 18" fill="none">
  <path d="M1.74055 7.8262H19.1305C19.3611 7.8262 19.5823 7.9178 19.7453 8.08085C19.9084 8.24391 20 8.46506 20 8.69565C20 8.92625 19.9084 9.1474 19.7453 9.31045C19.5823 9.47351 19.3611 9.56511 19.1305 9.56511H1.74055C1.50994 9.56511 1.28878 9.47351 1.12572 9.31045C0.96266 9.1474 0.871052 8.92625 0.871052 8.69565C0.871052 8.46506 0.96266 8.24391 1.12572 8.08085C1.28878 7.9178 1.50994 7.8262 1.74055 7.8262Z" fill="white"/>
  <path d="M2.10052 8.69565L9.31213 15.9052C9.4754 16.0684 9.56713 16.2899 9.56713 16.5208C9.56713 16.7516 9.4754 16.9731 9.31213 17.1363C9.14887 17.2996 8.92743 17.3913 8.69653 17.3913C8.46563 17.3913 8.24419 17.2996 8.08092 17.1363L0.255448 9.31123C0.174474 9.23046 0.110231 9.13451 0.0663971 9.02888C0.0225632 8.92325 0 8.81001 0 8.69565C0 8.58129 0.0225632 8.46805 0.0663971 8.36242C0.110231 8.25679 0.174474 8.16084 0.255448 8.08008L8.08092 0.254979C8.24419 0.0917186 8.46563 0 8.69653 0C8.92743 0 9.14887 0.0917186 9.31213 0.254979C9.4754 0.41824 9.56713 0.639668 9.56713 0.870554C9.56713 1.10144 9.4754 1.32287 9.31213 1.48613L2.10052 8.69565Z" fill="white"/>
</svg>