<svg xmlns="http://www.w3.org/2000/svg" width="18" height="20" viewBox="0 0 18 20" fill="none">
<path fill-rule="evenodd" clip-rule="evenodd" d="M7.92878 0.91244C8.62766 0.568285 9.44699 0.569639 10.1448 0.916003C10.6741 1.17875 11.005 1.66779 11.2535 2.11102C11.5088 2.56636 11.7834 3.17927 12.1122 3.91317L12.1324 3.95817L16.695 14.141C17.0317 14.8925 17.3122 15.5184 17.4855 16.0212C17.6533 16.5083 17.8015 17.0903 17.64 17.6663C17.428 18.4231 16.8724 19.0359 16.1403 19.3211C15.5828 19.5383 14.9891 19.4479 14.4879 19.3286C13.9705 19.2055 13.3201 18.9877 12.5391 18.7262L12.4929 18.7108L9.47989 17.7022C9.16278 17.5959 9.12763 17.5887 9.10197 17.5854L9.10186 17.5854C9.0776 17.5822 9.05327 17.5808 9.02905 17.5812C9.0263 17.5813 9.02354 17.5813 9.02078 17.5814C9.00501 17.5819 8.98931 17.5832 8.97371 17.5852L8.97309 17.5852C8.94749 17.5885 8.91277 17.5955 8.59474 17.7011L5.51444 18.7235L5.51441 18.7235L5.46694 18.7392C4.6853 18.9987 4.03421 19.2148 3.51652 19.3366C3.01486 19.4547 2.42048 19.5436 1.86335 19.3248C1.13174 19.0374 0.577874 18.4228 0.36802 17.6653M10.0004 15.7672V10.5C10.0004 9.94771 9.55271 9.5 9.00043 9.5C8.44814 9.5 8.00043 9.94771 8.00043 10.5V15.791C7.98852 15.795 7.97661 15.799 7.96471 15.8029L4.88443 16.8253C4.88442 16.8253 4.88441 16.8253 4.8844 16.8253C4.04384 17.1043 3.47831 17.291 3.05839 17.3898C2.71738 17.47 2.59654 17.4587 2.58156 17.4579C2.44595 17.4003 2.34267 17.2857 2.29936 17.1448C2.30016 17.1298 2.30143 17.0084 2.41664 16.6775C2.55851 16.2702 2.80289 15.727 3.16762 14.92L7.75388 4.77189C8.11049 3.98281 8.35046 3.45417 8.55754 3.08761C8.72536 2.79053 8.81337 2.71138 8.82407 2.7011C8.9572 2.63978 9.11065 2.63999 9.24371 2.70177C9.2544 2.71211 9.34215 2.79158 9.50897 3.08913C9.71488 3.45636 9.95316 3.98577 10.3073 4.77601L14.8498 14.9142C15.2117 15.7218 15.4542 16.2653 15.5946 16.6728C15.7087 17.0038 15.7095 17.1251 15.7103 17.1401C15.6666 17.2807 15.563 17.395 15.4273 17.4523C15.4123 17.453 15.2915 17.464 14.951 17.383C14.5316 17.2832 13.967 17.0952 13.1278 16.8142L10.1154 15.8058C10.1153 15.8058 10.1152 15.8058 10.1151 15.8057C10.0978 15.7999 10.0804 15.7941 10.0631 15.7883C10.0422 15.7812 10.0213 15.7742 10.0004 15.7672ZM15.4143 17.4575C15.4143 17.4575 15.4144 17.4575 15.4144 17.4575L15.4143 17.4575ZM15.7142 17.1267L15.7142 17.1267L15.7142 17.1267ZM2.5946 17.4633L2.59447 17.4632L2.5946 17.4633ZM7.92873 0.912464C7.39861 1.17352 7.06613 1.66145 6.81619 2.1039C6.55938 2.5585 6.28275 3.17065 5.9515 3.90365L1.3451 14.0964L1.32516 14.1405C0.985667 14.8916 0.702905 15.5172 0.527889 16.0198C0.358392 16.5066 0.208228 17.0885 0.36802 17.6653" fill="white"/>
</svg>