<svg xmlns="http://www.w3.org/2000/svg" width="20" height="20" viewBox="0 0 20 20" fill="none">
  <path fill-rule="evenodd" clip-rule="evenodd" d="M9.99992 3.33317C8.6192 3.33317 7.49992 4.45246 7.49992 5.83317C7.49992 7.21388 8.6192 8.33317 9.99992 8.33317C11.3806 8.33317 12.4999 7.21388 12.4999 5.83317C12.4999 4.45246 11.3806 3.33317 9.99992 3.33317ZM5.83325 5.83317C5.83325 3.53198 7.69873 1.6665 9.99992 1.6665C12.3011 1.6665 14.1666 3.53198 14.1666 5.83317C14.1666 8.13436 12.3011 9.99984 9.99992 9.99984C7.69873 9.99984 5.83325 8.13436 5.83325 5.83317ZM9.99992 12.4998C7.2385 12.4998 4.99992 14.7384 4.99992 17.4998C4.99992 17.9601 4.62682 18.3332 4.16659 18.3332C3.70635 18.3332 3.33325 17.9601 3.33325 17.4998C3.33325 13.8179 6.31802 10.8332 9.99992 10.8332C13.6818 10.8332 16.6666 13.8179 16.6666 17.4998C16.6666 17.9601 16.2935 18.3332 15.8333 18.3332C15.373 18.3332 14.9999 17.9601 14.9999 17.4998C14.9999 14.7384 12.7613 12.4998 9.99992 12.4998Z" fill="white"/>
</svg>